HIERARCHY
ROOT Hips
{
  OFFSET 5.84602e-005 68.8428 3.50346
  CHANNELS 6 Xposition Yposition Zposition Zrotation Xrotation Yrotation
  JOINT Spine
  {
    OFFSET 0 8.597 -4.6522
    CHANNELS 3 Zrotation Xrotation Yrotation
    JOINT Spine1
    {
      OFFSET 0 7.8454 0.4098
      CHANNELS 3 Zrotation Xrotation Yrotation
      JOINT Spine2
      {
        OFFSET 0 9.7078 -2.1609
        CHANNELS 3 Zrotation Xrotation Yrotation
        JOINT Neck
        {
          OFFSET 0 21.8761 -0.4549
          CHANNELS 3 Zrotation Xrotation Yrotation
          JOINT Head
          {
            OFFSET 0 12.3537 3.3602
            CHANNELS 3 Zrotation Xrotation Yrotation
            End Site
            {
              OFFSET 0.0001 18.9506 0.5657
            }
          }
        }
        JOINT LeftShoulder
        {
          OFFSET 2.2086 21.1115 7.2329
          CHANNELS 3 Zrotation Xrotation Yrotation
          JOINT LeftArm
          {
            OFFSET 13.1193 3.0282 -4.8998
            CHANNELS 3 Zrotation Xrotation Yrotation
            JOINT LeftForeArm
            {
              OFFSET 27.4081 -0.0973053 -0.2375
              CHANNELS 3 Zrotation Xrotation Yrotation
              JOINT LeftHand
              {
                OFFSET 22.8641 0.0662994 -0.1369
                CHANNELS 3 Zrotation Xrotation Yrotation
                JOINT LeftHandIndex1
                {
                  OFFSET 8.8614 0.775009 2.4612
                  CHANNELS 3 Zrotation Xrotation Yrotation
                  JOINT LeftHandIndex2
                  {
                    OFFSET 3.3146 -0.808304 0.5841
                    CHANNELS 3 Zrotation Xrotation Yrotation
                    JOINT LeftHandIndex3
                    {
                      OFFSET 2.2628 -0.552002 0.3989
                      CHANNELS 3 Zrotation Xrotation Yrotation
                      End Site
                      {
                        OFFSET 1.6102 -0.4807 0.2612
                      }
                    }
                  }
                }
                JOINT LeftHandMiddle1
                {
                  OFFSET 8.9937 0.895004 0.2143
                  CHANNELS 3 Zrotation Xrotation Yrotation
                  JOINT LeftHandMiddle2
                  {
                    OFFSET 4.0984 0.0113983 -0.0242
                    CHANNELS 3 Zrotation Xrotation Yrotation
                    JOINT LeftHandMiddle3
                    {
                      OFFSET 2.2716 0.00689697 -0.0138001
                      CHANNELS 3 Zrotation Xrotation Yrotation
                      End Site
                      {
                        OFFSET 2.0404 -0.1441 0.0027
                      }
                    }
                  }
                }
                JOINT LeftHandRing1
                {
                  OFFSET 8.5234 0.597198 -2.0164
                  CHANNELS 3 Zrotation Xrotation Yrotation
                  JOINT LeftHandRing2
                  {
                    OFFSET 3.7188 -0.188293 -0.2328
                    CHANNELS 3 Zrotation Xrotation Yrotation
                    JOINT LeftHandRing3
                    {
                      OFFSET 2.1191 -0.106598 -0.1332
                      CHANNELS 3 Zrotation Xrotation Yrotation
                      End Site
                      {
                        OFFSET 1.8737 -0.2304 -0.0886
                      }
                    }
                  }
                }
                JOINT LeftHandPinky1
                {
                  OFFSET 7.9094 -0.601089 -3.4825
                  CHANNELS 3 Zrotation Xrotation Yrotation
                  JOINT LeftHandPinky2
                  {
                    OFFSET 2.2874 -0.477005 -0.6314
                    CHANNELS 3 Zrotation Xrotation Yrotation
                    JOINT LeftHandPinky3
                    {
                      OFFSET 1.6774 -0.349396 -0.4633
                      CHANNELS 3 Zrotation Xrotation Yrotation
                      End Site
                      {
                        OFFSET 1.4888 -0.4091 -0.3416
                      }
                    }
                  }
                }
                JOINT LeftHandThumb1
                {
                  OFFSET 1.833 -1.3875 1.3896
                  CHANNELS 3 Zrotation Xrotation Yrotation
                  JOINT LeftHandThumb2
                  {
                    OFFSET 3.4129 -1.121 2.5732
                    CHANNELS 3 Zrotation Xrotation Yrotation
                    JOINT LeftHandThumb3
                    {
                      OFFSET 2.2474 -0.804199 1.6192
                      CHANNELS 3 Zrotation Xrotation Yrotation
                      End Site
                      {
                        OFFSET 1.6527 -0.5689 1.1317
                      }
                    }
                  }
                }
              }
            }
          }
        }
        JOINT RightShoulder
        {
          OFFSET -2.2086 21.1115 7.2329
          CHANNELS 3 Zrotation Xrotation Yrotation
          JOINT RightArm
          {
            OFFSET -13.1216 3.0287 -4.9007
            CHANNELS 3 Zrotation Xrotation Yrotation
            JOINT RightForeArm
            {
              OFFSET -27.4081 -0.0973053 -0.2375
              CHANNELS 3 Zrotation Xrotation Yrotation
              JOINT RightHand
              {
                OFFSET -22.8641 0.0664063 -0.1369
                CHANNELS 3 Zrotation Xrotation Yrotation
                JOINT RightHandIndex1
                {
                  OFFSET -8.8614 0.774994 2.4612
                  CHANNELS 3 Zrotation Xrotation Yrotation
                  JOINT RightHandIndex2
                  {
                    OFFSET -3.3146 -0.808304 0.5841
                    CHANNELS 3 Zrotation Xrotation Yrotation
                    JOINT RightHandIndex3
                    {
                      OFFSET -2.2628 -0.552002 0.3989
                      CHANNELS 3 Zrotation Xrotation Yrotation
                      End Site
                      {
                        OFFSET -1.6102 -0.4807 0.2612
                      }
                    }
                  }
                }
                JOINT RightHandMiddle1
                {
                  OFFSET -8.9937 0.894989 0.2143
                  CHANNELS 3 Zrotation Xrotation Yrotation
                  JOINT RightHandMiddle2
                  {
                    OFFSET -4.0984 0.0113983 -0.0242
                    CHANNELS 3 Zrotation Xrotation Yrotation
                    JOINT RightHandMiddle3
                    {
                      OFFSET -2.2716 0.00691223 -0.0138001
                      CHANNELS 3 Zrotation Xrotation Yrotation
                      End Site
                      {
                        OFFSET -2.0404 -0.1441 0.0027
                      }
                    }
                  }
                }
                JOINT RightHandRing1
                {
                  OFFSET -8.5234 0.597198 -2.0164
                  CHANNELS 3 Zrotation Xrotation Yrotation
                  JOINT RightHandRing2
                  {
                    OFFSET -3.7188 -0.188309 -0.2328
                    CHANNELS 3 Zrotation Xrotation Yrotation
                    JOINT RightHandRing3
                    {
                      OFFSET -2.1191 -0.106598 -0.1332
                      CHANNELS 3 Zrotation Xrotation Yrotation
                      End Site
                      {
                        OFFSET -1.8737 -0.2304 -0.0886
                      }
                    }
                  }
                }
                JOINT RightHandPinky1
                {
                  OFFSET -7.9094 -0.601105 -3.4825
                  CHANNELS 3 Zrotation Xrotation Yrotation
                  JOINT RightHandPinky2
                  {
                    OFFSET -2.2874 -0.477005 -0.6314
                    CHANNELS 3 Zrotation Xrotation Yrotation
                    JOINT RightHandPinky3
                    {
                      OFFSET -1.6774 -0.349396 -0.4633
                      CHANNELS 3 Zrotation Xrotation Yrotation
                      End Site
                      {
                        OFFSET -1.4888 -0.4091 -0.3416
                      }
                    }
                  }
                }
                JOINT RightHandThumb1
                {
                  OFFSET -1.833 -1.38751 1.3896
                  CHANNELS 3 Zrotation Xrotation Yrotation
                  JOINT RightHandThumb2
                  {
                    OFFSET -3.41299 -1.12099 2.5732
                    CHANNELS 3 Zrotation Xrotation Yrotation
                    JOINT RightHandThumb3
                    {
                      OFFSET -2.24741 -0.804108 1.6192
                      CHANNELS 3 Zrotation Xrotation Yrotation
                      End Site
                      {
                        OFFSET -1.6527 -0.5689 1.1317
                      }
                    }
                  }
                }
              }
            }
          }
        }
      }
    }
  }
  JOINT RightUpLeg
  {
    OFFSET -9.1966 3.8861 -0.7581
    CHANNELS 3 Zrotation Xrotation Yrotation
    JOINT RightLeg
    {
      OFFSET -0.7359 -41.0265 0
      CHANNELS 3 Zrotation Xrotation Yrotation
      JOINT RightFoot
      {
        OFFSET 0 -40.2855 0
        CHANNELS 3 Zrotation Xrotation Yrotation
        JOINT RightToeBase
        {
          OFFSET 0 -5.6122 11.7359
          CHANNELS 3 Zrotation Xrotation Yrotation
          End Site
          {
            OFFSET 0 0 7.8731
          }
        }
      }
    }
  }
  JOINT LeftUpLeg
  {
    OFFSET 9.1965 3.8864 -0.7581
    CHANNELS 3 Zrotation Xrotation Yrotation
    JOINT LeftLeg
    {
      OFFSET 0.7359 -41.0268 0
      CHANNELS 3 Zrotation Xrotation Yrotation
      JOINT LeftFoot
      {
        OFFSET 0 -40.2855 0
        CHANNELS 3 Zrotation Xrotation Yrotation
        JOINT LeftToeBase
        {
          OFFSET 0 -5.6122 11.7359
          CHANNELS 3 Zrotation Xrotation Yrotation
          End Site
          {
            OFFSET 0 0 7.8731
          }
        }
      }
    }
  }
}
MOTION
Frames:	5
Frame Time:	0.0333333
0.00632659 10.3674 66.5943 -0.00886773 -71.0095 179.991 0.028784 -2.49676 0.0462659 0.0596733 -4.99349 0.0939226 0.0596733 -4.99347 0.0939226 1.12959e-006 -1.74409 8.72671e-007 -0.0512736 2.05665 -0.00917401 28.5332 29.7799 -30.0901 -124.68 -67.3599 -140.391 -33.0106 -1.0229 -86.9926 -3.4174 22.0463 -32.1981 1.40578e-006 -8.16322e-007 4.78367e-007 -7.95139e-016 0 -0 -1.40578e-006 8.16322e-007 -4.78367e-007 1.40578e-006 -8.16322e-007 4.78367e-007 -0.0146193 -8.57185e-005 -1.73824e-006 -6.36111e-015 -4.77083e-015 -6.36111e-015 1.40578e-006 -8.16322e-007 4.78367e-007 -0.0187852 -0.00117698 5.70871e-005 6.36111e-015 1.59028e-015 -0 1.40578e-006 -8.16322e-007 4.78367e-007 -0.0122747 -0.00325222 0.0006728 -1.40427e-006 8.16784e-007 -4.78323e-007 1.40578e-006 -8.16322e-007 4.78367e-007 -7.95139e-016 0 -0 -1.40578e-006 8.16322e-007 -4.78367e-007 -28.3213 29.8332 29.9796 124.717 -67.3745 140.439 33.0062 -1.07857 86.9646 3.39836 22.0455 32.1733 2.8906e-007 -5.78702e-007 1.55916e-006 -2.57471e-007 1.55916e-006 5.78702e-007 3.40738e-006 -6.37606e-008 9.81039e-007 2.8906e-007 -5.78702e-007 1.55916e-006 0.0149729 -9.03901e-005 3.40586e-006 3.40756e-006 -6.36336e-008 9.81044e-007 2.8906e-007 -5.78702e-007 1.55916e-006 0.0190092 -0.00119205 -5.6666e-005 3.40762e-006 -6.36109e-008 9.81013e-007 2.8906e-007 -5.78702e-007 1.55916e-006 0.0122617 -0.00324189 -0.000678634 3.40756e-006 -6.36754e-008 9.80941e-007 2.8906e-007 -5.78702e-007 1.55916e-006 -2.57471e-007 1.55916e-006 5.78702e-007 3.40738e-006 -6.37606e-008 9.81039e-007 -107.011 -60.1463 -92.0945 176.754 45.0953 177.051 -7.2099 11.9328 -3.83882 -2.3426e-006 1.56334e-006 -7.27474e-006 104.616 -56.5008 90.2875 -176.713 45.0941 -177.134 7.18122 12.0662 3.82364 -1.01719e-007 -3.31413e-006 4.60816e-007 
0.00627138 10.3334 66.7031 -0.00886773 -71.0095 179.991 0.0292557 -2.47931 0.0463727 0.0606073 -4.95858 0.0941464 0.0606073 -4.95855 0.0941464 1.14814e-006 -2.23457 9.11783e-007 -0.051339 1.65683 -0.00912485 28.821 29.2244 -29.8307 -125.179 -67.4848 -140.761 -32.9955 -1.30826 -86.7535 -3.54966 21.6189 -32.0477 1.59028e-015 0 3.18055e-015 -1.11319e-014 -1.59028e-015 3.18055e-015 -1.74931e-014 -3.18055e-015 1.27222e-014 1.59028e-015 0 3.18055e-015 -0.0146094 -8.56675e-005 -2.13595e-006 -1.40187e-006 8.06064e-007 -4.71597e-007 1.59028e-015 0 3.18055e-015 -0.0187717 -0.001174 5.61809e-005 7.95139e-016 4.77083e-015 3.18055e-015 1.59028e-015 0 3.18055e-015 -0.0122569 -0.00324022 0.000676298 -1.40217e-006 8.06454e-007 -4.71659e-007 1.59028e-015 0 3.18055e-015 -1.11319e-014 -1.59028e-015 3.18055e-015 -1.74931e-014 -3.18055e-015 1.27222e-014 -28.618 29.2764 29.7231 125.209 -67.4969 140.802 32.9906 -1.36266 86.7262 3.41718 21.6335 31.9904 3.14685e-006 1.49692e-006 1.56436e-006 3.3483e-006 -2.02207e-006 -3.2917e-006 3.14685e-006 1.49692e-006 1.56436e-006 3.14685e-006 1.49692e-006 1.56436e-006 0.014997 -9.25301e-005 -4.95582e-006 4.63234e-006 2.29648e-006 2.06771e-006 3.14685e-006 1.49692e-006 1.56436e-006 0.0190029 -0.00118929 -6.09457e-005 3.14714e-006 1.49716e-006 1.56408e-006 3.14685e-006 1.49692e-006 1.56436e-006 0.0122697 -0.00325197 -0.000676788 3.14706e-006 1.49706e-006 1.5641e-006 3.14685e-006 1.49692e-006 1.56436e-006 3.3483e-006 -2.02207e-006 -3.2917e-006 3.14685e-006 1.49692e-006 1.56436e-006 -107.706 -60.1601 -92.7764 176.754 45.0907 177.05 -7.21004 11.9319 -3.83944 3.58038e-006 1.25254e-006 -5.70068e-008 105.272 -56.5947 90.9254 -176.713 45.0895 -177.132 7.18148 12.0631 3.82485 -3.18055e-015 6.36111e-015 1.59028e-015 
0.00621224 10.2994 66.8119 -0.00886773 -71.0095 179.991 0.0297214 -2.46181 0.046475 0.061529 -4.92363 0.0943604 0.061529 -4.92361 0.0943604 2.86669e-006 -2.72456 6.96424e-007 -0.0514036 1.25697 -0.00908051 29.1103 28.6699 -29.5694 -125.682 -67.6085 -141.136 -32.9792 -1.59415 -86.5148 -3.68035 21.1911 -31.8989 -0 -3.18055e-015 -0 -4.77083e-015 -1.59028e-015 -3.18055e-015 6.36111e-015 -6.36111e-015 6.36111e-015 -0 -3.18055e-015 -0 -0.0146255 -8.96977e-005 -3.04128e-006 -3.18055e-015 3.18055e-015 -6.36111e-015 -0 -3.18055e-015 -0 -0.0187674 -0.00117499 5.91193e-005 -1.4738e-006 1.27388e-006 4.68283e-007 -0 -3.18055e-015 -0 -0.0122671 -0.00324943 0.000670442 1.59028e-015 3.18055e-015 3.18055e-015 -0 -3.18055e-015 -0 -4.77083e-015 -1.59028e-015 -3.18055e-015 6.36111e-015 -6.36111e-015 6.36111e-015 -28.9161 28.7206 29.4646 125.706 -67.6181 141.169 32.9739 -1.64729 86.488 3.43447 21.2213 31.8082 5.29669e-031 -4.77083e-015 6.36111e-015 -7.95139e-016 6.36111e-015 6.36111e-015 1.27222e-014 4.77083e-015 1.27222e-014 5.29669e-031 -4.77083e-015 6.36111e-015 0.0149689 -9.24466e-005 3.23313e-006 7.95139e-016 1.59028e-015 -6.36111e-015 5.29669e-031 -4.77083e-015 6.36111e-015 0.01898 -0.00119061 -5.80697e-005 2.38542e-015 -1.59028e-015 -6.36111e-015 5.29669e-031 -4.77083e-015 6.36111e-015 0.0122873 -0.0032527 -0.00068018 -1.59028e-015 -6.36111e-015 6.36111e-015 5.29669e-031 -4.77083e-015 6.36111e-015 -7.95139e-016 6.36111e-015 6.36111e-015 1.27222e-014 4.77083e-015 1.27222e-014 -108.403 -60.1697 -93.459 176.755 45.0862 177.049 -7.21012 11.9309 -3.84006 2.23068e-006 1.26904e-006 4.25546e-006 105.932 -56.6847 91.5669 -176.713 45.085 -177.13 7.1818 12.0601 3.82602 1.59028e-015 3.18055e-015 2.38542e-015 
0.0061484 10.2653 66.9208 -0.00886773 -71.0095 179.991 0.0301819 -2.44432 0.0465735 0.06244 -4.88862 0.0945664 0.06244 -4.88861 0.0945664 3.79201e-006 -3.21542 8.79329e-007 -0.0514676 0.857052 -0.00904044 29.401 28.1163 -29.3063 -126.19 -67.731 -141.515 -32.9618 -1.87911 -86.2752 -3.80949 20.7629 -31.7514 -5.56597e-015 4.77083e-015 -3.18055e-015 1.47321e-006 -1.28409e-006 -4.58133e-007 1.40168e-006 -7.84803e-007 4.5752e-007 -5.56597e-015 4.77083e-015 -3.18055e-015 -0.014661 -9.11864e-005 -5.82431e-006 -2.38542e-015 -4.77083e-015 6.36111e-015 -5.56597e-015 4.77083e-015 -3.18055e-015 -0.0187498 -0.0011737 5.80784e-005 1.39936e-006 -7.85024e-007 4.57385e-007 -5.56597e-015 4.77083e-015 -3.18055e-015 -0.0122904 -0.00325026 0.000679486 1.59028e-015 7.95139e-015 -6.36111e-015 -5.56597e-015 4.77083e-015 -3.18055e-015 1.47321e-006 -1.28409e-006 -4.58133e-007 1.40168e-006 -7.84803e-007 4.5752e-007 -29.2156 28.1657 29.2041 126.208 -67.738 141.541 32.956 -1.93103 86.2491 3.45037 20.8089 31.6266 -2.60481e-007 1.55909e-006 5.80624e-007 4.62266e-006 1.28409e-006 -5.58637e-008 2.23376e-008 9.78464e-007 2.13971e-006 -2.60481e-007 1.55909e-006 5.80624e-007 0.0149618 -9.03702e-005 -3.68855e-006 2.24103e-008 9.78743e-007 2.13958e-006 -2.60481e-007 1.55909e-006 5.80624e-007 0.0189701 -0.00118833 -6.48602e-005 1.52459e-006 1.74217e-006 2.64919e-006 -2.60481e-007 1.55909e-006 5.80624e-007 0.0122923 -0.00325329 -0.00067869 2.24509e-008 9.78678e-007 2.1396e-006 -2.60481e-007 1.55909e-006 5.80624e-007 4.62266e-006 1.28409e-006 -5.58637e-008 2.23376e-008 9.78464e-007 2.13971e-006 -109.1 -60.1752 -94.1423 176.755 45.0817 177.047 -7.21025 11.9301 -3.84067 7.48236e-007 4.22379e-007 1.41621e-006 106.595 -56.7705 92.2121 -176.714 45.0804 -177.128 7.18205 12.0571 3.82719 -7.2941e-007 4.73718e-007 -1.41162e-006 
0.00608064 10.2313 67.0296 -0.00886773 -71.0095 179.991 0.0306384 -2.42681 0.0466695 0.0633427 -4.85359 0.0947669 0.0633427 -4.85359 0.0947669 1.24054e-006 -3.70702 2.76792e-007 -0.0515309 0.457102 -0.00900433 29.6931 27.5638 -29.0413 -126.702 -67.8521 -141.899 -32.9431 -2.16439 -86.0357 -3.93711 20.3344 -31.6054 2.52044e-007 1.56409e-006 -5.70234e-007 7.95139e-015 4.77083e-015 3.18055e-015 3.18055e-015 1.59028e-015 -0 2.52044e-007 1.56409e-006 -5.70234e-007 -0.0145768 -8.74069e-005 -3.83598e-006 1.51076e-014 -1.59028e-015 -3.18055e-015 2.52044e-007 1.56409e-006 -5.70234e-007 -0.0187547 -0.00117401 5.8848e-005 -1.39943e-006 7.74203e-007 -4.49873e-007 2.52044e-007 1.56409e-006 -5.70234e-007 -0.0122584 -0.00324692 0.000675252 -2.38542e-015 -3.18055e-015 -3.18055e-015 2.52044e-007 1.56409e-006 -5.70234e-007 7.95139e-015 4.77083e-015 3.18055e-015 3.18055e-015 1.59028e-015 -0 -29.5165 27.612 28.9416 126.714 -67.8567 141.918 32.9368 -2.21501 86.0103 3.46484 20.3964 31.4454 1.51437e-006 7.44835e-007 5.12263e-007 8.11442e-007 3.77789e-007 5.33445e-007 1.43125e-014 0 -0 1.51437e-006 7.44835e-007 5.12263e-007 0.0150323 -9.13278e-005 -2.40839e-006 -7.95139e-016 -1.11319e-014 -6.36111e-015 1.51437e-006 7.44835e-007 5.12263e-007 0.019003 -0.00118872 -5.81614e-005 -3.18055e-015 0 -0 1.51437e-006 7.44835e-007 5.12263e-007 0.0122843 -0.00325265 -0.000678624 -1.51286e-006 -7.45302e-007 -5.12225e-007 1.51437e-006 7.44835e-007 5.12263e-007 8.11442e-007 3.77789e-007 5.33445e-007 1.43125e-014 0 -0 -109.798 -60.1766 -94.8258 176.756 45.0773 177.046 -7.21037 11.9294 -3.84127 1.33777e-006 3.66409e-006 -1.82471e-007 107.262 -56.8523 92.8606 -176.714 45.076 -177.126 7.18235 12.0543 3.82836 -3.18055e-015 -3.18055e-015 1.59028e-015 
